<svg xmlns="http://www.w3.org/2000/svg" xmlns:xlink="http://www.w3.org/1999/xlink" xml:space="preserve" version="1.1" style="shape-rendering:geometricPrecision; text-rendering:geometricPrecision; image-rendering:optimizeQuality; fill-rule:evenodd; clip-rule:evenodd" viewBox="10937.63 7803.95 7824.74 5380.82">
 <defs>
  <style type="text/css">
   <![CDATA[
    .str2 {stroke:#2B2A29;stroke-width:45.19;stroke-miterlimit:2.61313}
    .str1 {stroke:#2B2A29;stroke-width:22.59;stroke-miterlimit:2.61313}
    .str0 {stroke:#2B2A29;stroke-width:22.59;stroke-miterlimit:2.61313}
    .fil1 {fill:#2B2A29}
    .fil0 {fill:#2B2A29;fill-rule:nonzero}
   ]]>
  </style>
 </defs>
 <g id="Layer_x0020_1">
  <metadata id="CorelCorpID_0Corel-Layer"/>
  <g id="_2574091862832">
   <path class="fil0 str0" d="M12133.99 12462.53c55.74,0 105.53,-18.95 139.08,-55.76l-25.43 -25.42c-30.86,31.92 -68.73,45.46 -112.02,45.46 -91.46,0 -160.19,-67.12 -160.19,-156.95 0,-89.84 68.73,-156.94 160.19,-156.94 43.29,0 81.16,13.53 112.02,44.92l25.43 -25.44c-33.55,-36.79 -83.34,-55.2 -138.54,-55.2 -114.18,0 -198.61,81.73 -198.61,192.66 0,110.94 84.43,192.67 198.07,192.67zm3395.86 -37.89l0 -140.71 195.9 0 0 -34.09 -195.9 0 0 -134.75 219.71 0 0 -34.64 -259.76 0 0 378.82 267.88 0 0 -34.63 -227.83 0zm-2868.76 34.63l-92.54 -129.88c55.21,-17.86 86.59,-59.53 86.59,-119.05 0,-81.18 -58.45,-129.89 -154.78,-129.89l-141.78 0 0 378.82 40.05 0 0 -120.13 101.73 0c10.83,0 20.57,-0.54 30.31,-1.63l86.59 121.76 43.83 0zm-161.8 -154.23l-100.66 0 0 -189.95 100.66 0c75.76,0 115.81,34.63 115.81,95.25 0,59.52 -40.05,94.7 -115.81,94.7zm533.59 154.23l42.22 0 -173.18 -378.82 -39.51 0 -173.17 378.82 41.67 0 45.45 -101.19 211.07 0 45.45 101.19zm-241.9 -133.66l90.92 -203.49 90.91 203.49 -181.83 0zm606.65 -210.52l0 -34.64 -259.76 0 0 378.82 40.05 0 0 -160.72 195.9 0 0 -34.64 -195.9 0 0 -148.82 219.71 0zm159.1 344.18l40.05 0 0 -344.18 133.12 0 0 -34.64 -306.3 0 0 34.64 133.13 0 0 344.18zm277.09 -34.63l0 -140.71 195.89 0 0 -34.09 -195.89 0 0 -134.75 219.7 0 0 -34.64 -259.76 0 0 378.82 267.88 0 0 -34.63 -227.82 0zm321.99 34.63l154.23 0c121.23,0 202.94,-77.92 202.94,-189.41 0,-111.48 -81.71,-189.41 -202.94,-189.41l-154.23 0 0 378.82zm40.05 -34.63l0 -309.55 112.02 0c100.65,0 165.59,63.86 165.59,154.77 0,90.92 -64.94,154.78 -165.59,154.78l-112.02 0zm548.74 34.63l40.05 0 0 -378.82 -40.05 0 0 378.82zm440.51 -378.82l0 307.39 -244.07 -307.39 -33.01 0 0 378.82 40.05 0 0 -307.39 243.52 307.39 33.02 0 0 -378.82 -39.51 0zm819.34 382.08c96.86,0 155.32,-56.29 155.32,-165.07l0 -217.01 -38.96 0 0 215.39c0,89.84 -42.22,130.97 -116.36,130.97 -73.6,0 -115.81,-41.13 -115.81,-130.97l0 -215.39 -40.05 0 0 217.01c0,108.78 58.99,165.07 155.86,165.07zm578.51 -3.26l-92.54 -129.88c55.2,-17.86 86.58,-59.53 86.58,-119.05 0,-81.18 -58.44,-129.89 -154.77,-129.89l-141.78 0 0 378.82 40.05 0 0 -120.13 101.73 0c10.82,0 20.57,-0.54 30.3,-1.63l86.6 121.76 43.83 0zm-161.81 -154.23l-100.65 0 0 -189.95 100.65 0c75.76,0 115.81,34.63 115.81,95.25 0,59.52 -40.05,94.7 -115.81,94.7zm416.16 157.49c113.65,0 198.61,-81.73 198.61,-192.67 0,-110.93 -84.96,-192.66 -198.61,-192.66 -114.72,0 -199.15,82.27 -199.15,192.66 0,110.4 84.43,192.67 199.15,192.67zm0 -35.72c-91.45,0 -159.64,-66.57 -159.64,-156.95 0,-90.38 68.19,-156.94 159.64,-156.94 90.93,0 158.56,66.56 158.56,156.94 0,90.38 -67.63,156.95 -158.56,156.95zm430.23 -346.36l-141.78 0 0 378.82 40.05 0 0 -119.6 101.73 0c96.33,0 154.78,-48.7 154.78,-129.33 0,-81.18 -58.45,-129.89 -154.78,-129.89zm-1.07 224.05l-100.66 0 0 -189.41 100.66 0c75.76,0 115.81,34.63 115.81,95.25 0,59.52 -40.05,94.16 -115.81,94.16zm282.49 120.14l0 -140.71 195.9 0 0 -34.09 -195.9 0 0 -134.75 219.71 0 0 -34.64 -259.76 0 0 378.82 267.88 0 0 -34.63 -227.83 0z"/>
   <path class="fil0 str1" d="M11145.02 13167.85l73.16 0 0 -332 130.55 0 0 -61.9 -334.25 0 0 61.9 130.54 0 0 332zm4775.12 -61.9l231.84 -283.04 0 -48.96 -324.68 0 0 61.9 227.89 0 -231.83 283.05 0 48.95 335.94 0 0 -61.9 -239.16 0zm-4239.42 -332l0 162.63 -203.7 0 0 -162.63 -73.15 0 0 393.9 73.15 0 0 -168.81 203.7 0 0 168.81 73.16 0 0 -393.9 -73.16 0zm252.1 332.56l0 -108.6 190.2 0 0 -60.21 -190.2 0 0 -102.41 214.39 0 0 -61.34 -287.54 0 0 393.9 295.42 0 0 -61.34 -222.27 0zm965.04 -332.56l-100.72 301.06 -99.6 -301.06 -67.52 0 -101.85 299.36 -97.92 -299.36 -75.96 0 130.55 393.9 78.22 0 99.03 -291.48 97.35 291.48 77.66 0 130.54 -393.9 -69.78 0zm309.49 399.52c122.11,0 212.14,-85.53 212.14,-202.57 0,-117.04 -90.03,-202.57 -212.14,-202.57 -122.1,0 -212.14,86.1 -212.14,202.57 0,116.48 90.04,202.57 212.14,202.57zm0 -64.14c-79.33,0 -138.43,-57.96 -138.43,-138.43 0,-80.46 59.1,-138.43 138.43,-138.43 79.35,0 138.43,57.97 138.43,138.43 0,80.47 -59.08,138.43 -138.43,138.43zm626.29 58.52l-90.6 -129.42c53.47,-20.82 83.85,-64.71 83.85,-124.36 0,-87.22 -64.15,-140.12 -167.69,-140.12l-162.06 0 0 393.9 73.15 0 0 -114.8 88.91 0c5.06,0 10.14,0 15.19,-0.55l80.48 115.35 78.77 0zm-80.46 -253.78c0,49.52 -33.2,78.79 -97.36,78.79l-85.53 0 0 -157.01 85.53 0c64.16,0 97.36,28.71 97.36,78.22zm155.31 253.78l279.09 0 0 -61.9 -205.95 0 0 -332 -73.14 0 0 393.9zm337.05 0l172.19 0c127.73,0 214.94,-78.78 214.94,-196.95 0,-118.16 -87.21,-196.95 -214.94,-196.95l-172.19 0 0 393.9zm73.15 -61.9l0 -270.1 95.66 0c87.79,0 144.61,53.47 144.61,135.05 0,81.6 -56.82,135.05 -144.61,135.05l-95.66 0zm730.95 67.52c122.11,0 212.14,-85.53 212.14,-202.57 0,-117.04 -90.03,-202.57 -212.14,-202.57 -122.1,0 -212.14,86.1 -212.14,202.57 0,116.48 90.04,202.57 212.14,202.57zm0 -64.14c-79.33,0 -138.43,-57.96 -138.43,-138.43 0,-80.46 59.1,-138.43 138.43,-138.43 79.34,0 138.43,57.97 138.43,138.43 0,80.47 -59.09,138.43 -138.43,138.43zm577.33 -274.04l0 -61.34 -287.54 0 0 393.9 73.15 0 0 -150.8 190.2 0 0 -61.9 -190.2 0 0 -119.86 214.39 0zm599.29 332.56l73.14 0 0 -393.9 -73.14 0 0 393.9zm515.99 0l-90.59 -129.42c53.46,-20.82 83.84,-64.71 83.84,-124.36 0,-87.22 -64.14,-140.12 -167.68,-140.12l-162.06 0 0 393.9 73.15 0 0 -114.8 88.91 0c5.06,0 10.13,0 15.19,-0.55l80.47 115.35 78.77 0zm-80.46 -253.78c0,49.52 -33.2,78.79 -97.35,78.79l-85.53 0 0 -157.01 85.53 0c64.15,0 97.35,28.71 97.35,78.22zm337.62 259.4c64.72,0 119.86,-23.06 156.44,-65.83l-47.27 -45.02c-28.7,31.52 -64.15,46.71 -105.23,46.71 -81.58,0 -140.68,-57.39 -140.68,-138.43 0,-81.02 59.1,-138.43 140.68,-138.43 41.08,0 76.53,15.21 105.23,46.15l47.27 -44.46c-36.58,-42.76 -91.72,-65.83 -155.88,-65.83 -120.97,0 -211.01,84.97 -211.01,202.57 0,117.61 90.04,202.57 210.45,202.57zm402.34 0c122.11,0 212.13,-85.53 212.13,-202.57 0,-117.04 -90.02,-202.57 -212.13,-202.57 -122.1,0 -212.14,86.1 -212.14,202.57 0,116.48 90.04,202.57 212.14,202.57zm0 -64.14c-79.34,0 -138.43,-57.96 -138.43,-138.43 0,-80.46 59.09,-138.43 138.43,-138.43 79.34,0 138.42,57.97 138.42,138.43 0,80.47 -59.08,138.43 -138.42,138.43zm567.2 -335.38l0 266.73 -217.2 -266.73 -60.21 0 0 393.9 72.58 0 0 -266.73 217.21 266.73 60.21 0 0 -393.9 -72.59 0zm178.39 393.9l73.14 0 0 -393.9 -73.14 0 0 393.9zm474.35 0l76.53 0 -177.81 -393.9 -72.02 0 -177.26 393.9 75.4 0 38.83 -91.15 196.95 0 39.38 91.15zm-211.57 -148.56l73.71 -172.18 74.28 172.18 -147.99 0z"/>
   <g>
    <polygon class="fil0" points="10949.42,12245.43 11700.43,12245.43 11700.43,12294.28 10949.42,12294.28 "/>
    <path id="1" class="fil0" d="M11700.43 12256.93l-751.01 0 0 -23 751.01 0 11.79 11.5 -11.79 11.5zm0 -23l11.79 0 0 11.5 -11.79 -11.5zm-11.79 60.35l0 -48.85 23.58 0 0 48.85 -11.79 11.5 -11.79 -11.5zm23.58 0l0 11.5 -11.79 0 11.79 -11.5zm-762.8 -11.5l751.01 0 0 23 -751.01 0 -11.79 -11.5 11.79 -11.5zm0 23l-11.79 0 0 -11.5 11.79 11.5zm11.79 -60.35l0 48.85 -23.58 0 0 -48.85 11.79 -11.5 11.79 11.5zm-23.58 0l0 -11.5 11.79 0 -11.79 11.5z"/>
   </g>
   <g>
    <polygon class="fil0" points="17999.57,12245.43 18750.58,12245.43 18750.58,12294.28 17999.57,12294.28 "/>
    <path id="1" class="fil0" d="M18750.58 12256.93l-751.01 0 0 -23 751.01 0 11.79 11.5 -11.79 11.5zm0 -23l11.79 0 0 11.5 -11.79 -11.5zm-11.79 60.35l0 -48.85 23.58 0 0 48.85 -11.79 11.5 -11.79 -11.5zm23.58 0l0 11.5 -11.79 0 11.79 -11.5zm-762.8 -11.5l751.01 0 0 23 -751.01 0 -11.79 -11.5 11.79 -11.5zm0 23l-11.79 0 0 -11.5 11.79 11.5zm11.79 -60.35l0 48.85 -23.58 0 0 -48.85 11.79 -11.5 11.79 11.5zm-23.58 0l0 -11.5 11.79 0 -11.79 11.5z"/>
   </g>
   <path class="fil1 str2" d="M15631.44 9584.87l189.56 -411.94 716.7 -420.47 -1553.41 2238.99 647.15 -1406.58zm-2456.43 -832.41l716.7 420.47 189.56 411.94 647.15 1406.58 -1553.41 -2238.99zm1003.98 -880.77l1354.73 0 630.8 277.67 -630.8 277.7 -1354.73 0 -630.8 -277.7 630.8 -277.67zm1589.2 1307.93l-911.84 1981.79 -911.83 -1981.79 1823.67 0zm-245.38 -707.39l248.06 662.24 -1829.02 0 248.05 -662.24 1332.91 0zm690.36 -294.91l368.42 497.04 -766.42 449.6 -248.06 -662.25 384.12 -169.09 261.94 -115.3zm-2713.61 0l261.92 115.3 384.12 169.09 -248.05 662.25 -766.43 -449.6 368.44 -497.04zm3137.1 508.86c0.05,-0.2 0.12,-0.37 0.17,-0.56 0.05,-0.29 0.03,-0.56 0.07,-0.86 0.18,-0.99 0.27,-1.99 0.29,-3.01 0.03,-0.49 0.05,-0.95 0.03,-1.43 -0.05,-1.15 -0.17,-2.24 -0.39,-3.36 -0.05,-0.29 -0.07,-0.6 -0.15,-0.89 -0.31,-1.42 -0.77,-2.8 -1.35,-4.12 -0.15,-0.29 -0.32,-0.58 -0.47,-0.87 -0.51,-1 -1.07,-1.97 -1.73,-2.92 -0.09,-0.17 -0.17,-0.32 -0.29,-0.49l-394.13 -531.74c-0.15,-0.19 -0.32,-0.33 -0.47,-0.53 -0.48,-0.63 -1.02,-1.24 -1.58,-1.79 -0.32,-0.32 -0.63,-0.61 -0.94,-0.93 -0.56,-0.54 -1.2,-1 -1.8,-1.46 -0.35,-0.24 -0.69,-0.51 -1.03,-0.75 -0.72,-0.46 -1.48,-0.86 -2.26,-1.27 -0.29,-0.14 -0.56,-0.29 -0.85,-0.43 -0.05,0 -0.07,-0.03 -0.12,-0.05l-682.1 -300.27c-2.87,-1.29 -5.96,-1.91 -9.09,-1.91l-1364.23 0c-3.13,0 -6.22,0.62 -9.09,1.91l-682.1 300.27c-0.04,0.02 -0.09,0.05 -0.12,0.07 -0.24,0.09 -0.46,0.22 -0.68,0.34 -0.85,0.42 -1.68,0.85 -2.46,1.36 -0.31,0.22 -0.6,0.46 -0.94,0.68 -0.63,0.49 -1.27,0.97 -1.88,1.53 -0.28,0.3 -0.6,0.56 -0.9,0.88 -0.56,0.58 -1.09,1.19 -1.6,1.82 -0.15,0.2 -0.31,0.34 -0.46,0.53l-394.14 531.74c-0.12,0.17 -0.2,0.32 -0.29,0.49 -0.66,0.95 -1.22,1.92 -1.73,2.92 -0.15,0.29 -0.31,0.58 -0.47,0.87 -0.57,1.32 -1.04,2.7 -1.35,4.12 -0.08,0.29 -0.1,0.6 -0.15,0.89 -0.22,1.12 -0.34,2.21 -0.39,3.36 -0.02,0.48 0,0.94 0.03,1.43 0.02,1.02 0.11,2.02 0.29,3.01 0.02,0.3 0.02,0.57 0.07,0.86 0.05,0.19 0.12,0.36 0.17,0.56 0.25,1.09 0.61,2.19 1.05,3.26 0.09,0.29 0.19,0.6 0.31,0.87 0.56,1.26 1.22,2.5 2.04,3.68l1758.34 2534.33c0.1,0.12 0.22,0.22 0.32,0.36 0.07,0.08 0.12,0.15 0.17,0.23 0.24,0.31 0.48,0.65 0.75,0.97 0.73,0.87 1.51,1.7 2.36,2.43 0.05,0.07 0.12,0.14 0.19,0.22 0.08,0.05 0.13,0.1 0.2,0.15 0.95,0.79 1.95,1.48 3.01,2.11 0.13,0.1 0.22,0.19 0.37,0.29 0.19,0.1 0.38,0.15 0.61,0.27 0.19,0.1 0.39,0.22 0.6,0.32 0.35,0.16 0.66,0.33 1.03,0.48 0.56,0.25 1.14,0.44 1.72,0.66 0.39,0.12 0.75,0.26 1.12,0.36 0.25,0.05 0.46,0.12 0.71,0.17 0.12,0.05 0.24,0.05 0.36,0.08 0.36,0.09 0.73,0.16 1.09,0.21 0.27,0.06 0.56,0.13 0.83,0.17 1.05,0.15 2.07,0.24 3.12,0.24l0 0c0.02,0 0.02,0 0.02,0 1.04,0 2.06,-0.09 3.11,-0.24 0.27,-0.04 0.56,-0.11 0.83,-0.17 0.36,-0.05 0.73,-0.12 1.09,-0.21 0.12,-0.03 0.25,-0.03 0.37,-0.08 0.24,-0.05 0.46,-0.12 0.7,-0.17 0.37,-0.1 0.73,-0.24 1.12,-0.36 0.58,-0.22 1.16,-0.41 1.73,-0.66 0.36,-0.15 0.67,-0.32 1.02,-0.48 0.21,-0.1 0.41,-0.22 0.61,-0.32 0.22,-0.12 0.41,-0.17 0.6,-0.27 0.15,-0.1 0.24,-0.19 0.37,-0.29 1.07,-0.63 2.07,-1.32 3.01,-2.11 0.08,-0.05 0.12,-0.1 0.2,-0.15 0.07,-0.08 0.14,-0.15 0.19,-0.22 0.85,-0.73 1.63,-1.56 2.36,-2.43 0.27,-0.32 0.51,-0.66 0.75,-0.97 0.06,-0.08 0.1,-0.15 0.17,-0.23 0.1,-0.14 0.22,-0.24 0.32,-0.36l1758.34 -2534.33c0.83,-1.18 1.48,-2.42 2.04,-3.68 0.12,-0.27 0.22,-0.58 0.34,-0.87 0.42,-1.07 0.78,-2.17 1.02,-3.26z"/>
  </g>
 </g>
</svg>